<svg id="visual" viewBox="0 0 900 600" width="900" height="600" xmlns="http://www.w3.org/2000/svg" xmlns:xlink="http://www.w3.org/1999/xlink" version="1.1"><g stroke-width="1" stroke-linejoin="bevel"><path d="M488.1 275L494.7 363L526.7 343Z" fill="#009473" stroke="#009473"></path><path d="M522.9 393L548.9 354L526.7 343Z" fill="#a8c19c" stroke="#a8c19c"></path><path d="M589.5 218L525.7 197L488.1 275Z" fill="#dddfcb" stroke="#dddfcb"></path><path d="M488.1 275L418.3 350L494.7 363Z" fill="#93b890" stroke="#93b890"></path><path d="M453.1 438L522.9 393L494.7 363Z" fill="#cdd4ba" stroke="#cdd4ba"></path><path d="M494.7 363L522.9 393L526.7 343Z" fill="#dddfcb" stroke="#dddfcb"></path><path d="M522.9 393L558.5 377L548.9 354Z" fill="#62a67d" stroke="#62a67d"></path><path d="M488.1 275L394.9 292L418.3 350Z" fill="#a8c19c" stroke="#a8c19c"></path><path d="M522.9 393L589.9 381L558.5 377Z" fill="#f6f5f1" stroke="#f6f5f1"></path><path d="M558.5 377L589.9 381L548.9 354Z" fill="#dddfcb" stroke="#dddfcb"></path><path d="M589.5 218L488.1 275L526.7 343Z" fill="#a8c19c" stroke="#a8c19c"></path><path d="M383.3 397L453.1 438L418.3 350Z" fill="#a8c19c" stroke="#a8c19c"></path><path d="M418.3 350L453.1 438L494.7 363Z" fill="#bbcaaa" stroke="#bbcaaa"></path><path d="M544.7 515L640.7 436L589.9 381Z" fill="#7caf85" stroke="#7caf85"></path><path d="M623.5 324L526.7 343L548.9 354Z" fill="#7caf85" stroke="#7caf85"></path><path d="M488.1 275L394.3 165L394.9 292Z" fill="#a8c19c" stroke="#a8c19c"></path><path d="M394.9 292L383.3 397L418.3 350Z" fill="#429d77" stroke="#429d77"></path><path d="M589.9 381L623.5 324L548.9 354Z" fill="#f6f5f1" stroke="#f6f5f1"></path><path d="M623.5 324L589.5 218L526.7 343Z" fill="#7caf85" stroke="#7caf85"></path><path d="M394.3 165L327.3 269L394.9 292Z" fill="#eae9de" stroke="#eae9de"></path><path d="M394.9 292L325.1 398L383.3 397Z" fill="#bbcaaa" stroke="#bbcaaa"></path><path d="M589.5 218L570.9 167L525.7 197Z" fill="#eae9de" stroke="#eae9de"></path><path d="M525.7 197L394.3 165L488.1 275Z" fill="#7caf85" stroke="#7caf85"></path><path d="M503.9 129L394.3 165L525.7 197Z" fill="#429d77" stroke="#429d77"></path><path d="M283.5 330L325.1 398L394.9 292Z" fill="#f6f5f1" stroke="#f6f5f1"></path><path d="M383.3 397L442.1 504L453.1 438Z" fill="#7caf85" stroke="#7caf85"></path><path d="M570.9 167L503.9 129L525.7 197Z" fill="#dddfcb" stroke="#dddfcb"></path><path d="M325.1 398L442.1 504L383.3 397Z" fill="#eae9de" stroke="#eae9de"></path><path d="M453.1 438L544.7 515L522.9 393Z" fill="#f6f5f1" stroke="#f6f5f1"></path><path d="M544.7 515L589.9 381L522.9 393Z" fill="#a8c19c" stroke="#a8c19c"></path><path d="M589.9 381L644.5 433L623.5 324Z" fill="#dddfcb" stroke="#dddfcb"></path><path d="M640.7 436L644.5 433L589.9 381Z" fill="#dddfcb" stroke="#dddfcb"></path><path d="M589.5 218L594.7 156L570.9 167Z" fill="#009473" stroke="#009473"></path><path d="M570.9 167L594.7 156L503.9 129Z" fill="#f6f5f1" stroke="#f6f5f1"></path><path d="M623.5 151L594.7 156L589.5 218Z" fill="#bbcaaa" stroke="#bbcaaa"></path><path d="M623.5 151L589.5 218L769.4 231Z" fill="#62a67d" stroke="#62a67d"></path><path d="M442.1 504L544.7 515L453.1 438Z" fill="#009473" stroke="#009473"></path><path d="M737.4 412L719.2 390L644.5 433Z" fill="#62a67d" stroke="#62a67d"></path><path d="M327.3 269L283.5 330L394.9 292Z" fill="#7caf85" stroke="#7caf85"></path><path d="M216.5 229L283.5 330L327.3 269Z" fill="#a8c19c" stroke="#a8c19c"></path><path d="M769.4 231L589.5 218L623.5 324Z" fill="#429d77" stroke="#429d77"></path><path d="M594.7 156L597.5 0L503.9 129Z" fill="#cdd4ba" stroke="#cdd4ba"></path><path d="M356.1 102L341.1 162L394.3 165Z" fill="#429d77" stroke="#429d77"></path><path d="M394.3 165L341.1 162L327.3 269Z" fill="#7caf85" stroke="#7caf85"></path><path d="M737.4 412L644.5 433L743.4 447Z" fill="#93b890" stroke="#93b890"></path><path d="M644.5 433L719.2 390L623.5 324Z" fill="#f6f5f1" stroke="#f6f5f1"></path><path d="M503.9 129L356.1 102L394.3 165Z" fill="#dddfcb" stroke="#dddfcb"></path><path d="M239.3 167L216.5 229L327.3 269Z" fill="#eae9de" stroke="#eae9de"></path><path d="M691.5 500L644.5 433L640.7 436Z" fill="#93b890" stroke="#93b890"></path><path d="M779.4 204L654.7 107L623.5 151Z" fill="#cdd4ba" stroke="#cdd4ba"></path><path d="M763.4 335L623.5 324L719.2 390Z" fill="#a8c19c" stroke="#a8c19c"></path><path d="M623.5 151L654.7 107L594.7 156Z" fill="#62a67d" stroke="#62a67d"></path><path d="M503.9 129L406.1 26L356.1 102Z" fill="#429d77" stroke="#429d77"></path><path d="M341.1 600L416.3 579L442.1 504Z" fill="#009473" stroke="#009473"></path><path d="M442.1 504L459.9 590L544.7 515Z" fill="#7caf85" stroke="#7caf85"></path><path d="M405.3 600L416.3 579L341.1 600Z" fill="#93b890" stroke="#93b890"></path><path d="M544.7 515L691.5 500L640.7 436Z" fill="#f6f5f1" stroke="#f6f5f1"></path><path d="M590.7 600L691.5 500L544.7 515Z" fill="#eae9de" stroke="#eae9de"></path><path d="M416.3 579L459.9 590L442.1 504Z" fill="#cdd4ba" stroke="#cdd4ba"></path><path d="M737.4 412L763.4 335L719.2 390Z" fill="#a8c19c" stroke="#a8c19c"></path><path d="M691.5 500L743.4 447L644.5 433Z" fill="#eae9de" stroke="#eae9de"></path><path d="M737.4 412L833.4 373L763.4 335Z" fill="#429d77" stroke="#429d77"></path><path d="M743.4 447L752.5 430L737.4 412Z" fill="#429d77" stroke="#429d77"></path><path d="M239.3 167L327.3 269L341.1 162Z" fill="#bbcaaa" stroke="#bbcaaa"></path><path d="M257.6 530L442.1 504L325.1 398Z" fill="#62a67d" stroke="#62a67d"></path><path d="M459.9 590L561.9 600L544.7 515Z" fill="#eae9de" stroke="#eae9de"></path><path d="M224.5 131L239.3 167L341.1 162Z" fill="#93b890" stroke="#93b890"></path><path d="M416.3 579L405.3 600L459.9 590Z" fill="#a8c19c" stroke="#a8c19c"></path><path d="M459.9 590L405.3 600L561.9 600Z" fill="#009473" stroke="#009473"></path><path d="M257.6 530L325.1 398L188.6 407Z" fill="#a8c19c" stroke="#a8c19c"></path><path d="M763.4 335L769.4 231L623.5 324Z" fill="#bbcaaa" stroke="#bbcaaa"></path><path d="M561.9 600L590.7 600L544.7 515Z" fill="#7caf85" stroke="#7caf85"></path><path d="M491.1 0L406.1 26L503.9 129Z" fill="#7caf85" stroke="#7caf85"></path><path d="M356.1 102L224.5 131L341.1 162Z" fill="#bbcaaa" stroke="#bbcaaa"></path><path d="M852.2 274L779.4 204L769.4 231Z" fill="#93b890" stroke="#93b890"></path><path d="M769.4 231L779.4 204L623.5 151Z" fill="#f6f5f1" stroke="#f6f5f1"></path><path d="M852.2 274L769.4 231L763.4 335Z" fill="#62a67d" stroke="#62a67d"></path><path d="M188.6 407L325.1 398L283.5 330Z" fill="#62a67d" stroke="#62a67d"></path><path d="M166.5 297L188.6 407L283.5 330Z" fill="#009473" stroke="#009473"></path><path d="M257.6 530L341.1 600L442.1 504Z" fill="#009473" stroke="#009473"></path><path d="M495.7 0L491.1 0L503.9 129Z" fill="#dddfcb" stroke="#dddfcb"></path><path d="M597.5 0L495.7 0L503.9 129Z" fill="#93b890" stroke="#93b890"></path><path d="M126.6 242L166.5 297L216.5 229Z" fill="#009473" stroke="#009473"></path><path d="M216.5 229L166.5 297L283.5 330Z" fill="#62a67d" stroke="#62a67d"></path><path d="M208.6 102L224.5 131L239.5 17Z" fill="#62a67d" stroke="#62a67d"></path><path d="M239.3 167L180.6 116L216.5 229Z" fill="#a8c19c" stroke="#a8c19c"></path><path d="M491.1 0L426.3 0L406.1 26Z" fill="#eae9de" stroke="#eae9de"></path><path d="M239.5 17L224.5 131L356.1 102Z" fill="#009473" stroke="#009473"></path><path d="M426.3 0L424.9 0L406.1 26Z" fill="#62a67d" stroke="#62a67d"></path><path d="M221.5 600L342.5 620L341.1 600Z" fill="#009473" stroke="#009473"></path><path d="M341.1 600L342.5 620L405.3 600Z" fill="#bbcaaa" stroke="#bbcaaa"></path><path d="M405.3 600L342.5 620L561.9 600Z" fill="#62a67d" stroke="#62a67d"></path><path d="M561.9 600L342.5 620L590.7 600Z" fill="#62a67d" stroke="#62a67d"></path><path d="M764.4 53L597.5 0L654.7 107Z" fill="#429d77" stroke="#429d77"></path><path d="M654.7 107L597.5 0L594.7 156Z" fill="#a8c19c" stroke="#a8c19c"></path><path d="M166.5 297L151.5 386L188.6 407Z" fill="#a8c19c" stroke="#a8c19c"></path><path d="M188.6 407L148.8 447L257.6 530Z" fill="#dddfcb" stroke="#dddfcb"></path><path d="M342.5 620L694.5 600L590.7 600Z" fill="#dddfcb" stroke="#dddfcb"></path><path d="M590.7 600L694.5 600L691.5 500Z" fill="#429d77" stroke="#429d77"></path><path d="M691.5 500L777.2 559L743.4 447Z" fill="#cdd4ba" stroke="#cdd4ba"></path><path d="M894.2 413L833.4 373L752.5 430Z" fill="#eae9de" stroke="#eae9de"></path><path d="M900 514L752.5 430L743.4 447Z" fill="#429d77" stroke="#429d77"></path><path d="M752.5 430L833.4 373L737.4 412Z" fill="#cdd4ba" stroke="#cdd4ba"></path><path d="M813.2 134L784.2 124L779.4 204Z" fill="#cdd4ba" stroke="#cdd4ba"></path><path d="M779.4 204L784.2 124L654.7 107Z" fill="#009473" stroke="#009473"></path><path d="M281.3 -4L356.1 102L406.1 26Z" fill="#dddfcb" stroke="#dddfcb"></path><path d="M224.5 131L180.6 116L239.3 167Z" fill="#429d77" stroke="#429d77"></path><path d="M151.5 386L148.8 447L188.6 407Z" fill="#93b890" stroke="#93b890"></path><path d="M257.6 530L221.5 600L341.1 600Z" fill="#dddfcb" stroke="#dddfcb"></path><path d="M873.2 324L852.2 274L763.4 335Z" fill="#dddfcb" stroke="#dddfcb"></path><path d="M208.6 102L180.6 116L224.5 131Z" fill="#009473" stroke="#009473"></path><path d="M166.5 297L89.6 285L151.5 386Z" fill="#93b890" stroke="#93b890"></path><path d="M112.8 159L126.6 242L216.5 229Z" fill="#eae9de" stroke="#eae9de"></path><path d="M44.8 409L85.8 490L148.8 447Z" fill="#009473" stroke="#009473"></path><path d="M900 217L813.2 134L779.4 204Z" fill="#93b890" stroke="#93b890"></path><path d="M784.2 124L764.4 53L654.7 107Z" fill="#cdd4ba" stroke="#cdd4ba"></path><path d="M694.5 600L777.2 559L691.5 500Z" fill="#bbcaaa" stroke="#bbcaaa"></path><path d="M694.5 600L747.4 600L777.2 559Z" fill="#7caf85" stroke="#7caf85"></path><path d="M900 606L747.4 600L694.5 600Z" fill="#cdd4ba" stroke="#cdd4ba"></path><path d="M813.2 134L764.4 53L784.2 124Z" fill="#f6f5f1" stroke="#f6f5f1"></path><path d="M833.4 373L873.2 324L763.4 335Z" fill="#93b890" stroke="#93b890"></path><path d="M852.2 274L900 217L779.4 204Z" fill="#cdd4ba" stroke="#cdd4ba"></path><path d="M900 372L873.2 324L833.4 373Z" fill="#bbcaaa" stroke="#bbcaaa"></path><path d="M208.6 102L155.5 0L180.6 116Z" fill="#62a67d" stroke="#62a67d"></path><path d="M424.9 0L281.3 -4L406.1 26Z" fill="#7caf85" stroke="#7caf85"></path><path d="M426.3 0L281.3 -4L424.9 0Z" fill="#eae9de" stroke="#eae9de"></path><path d="M491.1 0L281.3 -4L426.3 0Z" fill="#93b890" stroke="#93b890"></path><path d="M495.7 0L281.3 -4L491.1 0Z" fill="#009473" stroke="#009473"></path><path d="M597.5 0L281.3 -4L495.7 0Z" fill="#dddfcb" stroke="#dddfcb"></path><path d="M212.6 600L221.5 600L257.6 530Z" fill="#a8c19c" stroke="#a8c19c"></path><path d="M281.3 -4L239.5 17L356.1 102Z" fill="#62a67d" stroke="#62a67d"></path><path d="M98.6 518L212.6 600L257.6 530Z" fill="#62a67d" stroke="#62a67d"></path><path d="M221.5 600L212.6 600L342.5 620Z" fill="#f6f5f1" stroke="#f6f5f1"></path><path d="M747.4 600L775.2 600L777.2 559Z" fill="#a8c19c" stroke="#a8c19c"></path><path d="M894.2 413L900 372L833.4 373Z" fill="#cdd4ba" stroke="#cdd4ba"></path><path d="M900 606L775.2 600L747.4 600Z" fill="#dddfcb" stroke="#dddfcb"></path><path d="M22.8 198L89.6 285L126.6 242Z" fill="#eae9de" stroke="#eae9de"></path><path d="M126.6 242L89.6 285L166.5 297Z" fill="#eae9de" stroke="#eae9de"></path><path d="M180.6 116L112.8 159L216.5 229Z" fill="#dddfcb" stroke="#dddfcb"></path><path d="M104.8 0L112.8 159L180.6 116Z" fill="#a8c19c" stroke="#a8c19c"></path><path d="M900 372L900 292L873.2 324Z" fill="#7caf85" stroke="#7caf85"></path><path d="M873.2 324L900 292L852.2 274Z" fill="#dddfcb" stroke="#dddfcb"></path><path d="M894.2 413L752.5 430L900 514Z" fill="#f6f5f1" stroke="#f6f5f1"></path><path d="M900 514L743.4 447L777.2 559Z" fill="#cdd4ba" stroke="#cdd4ba"></path><path d="M900 292L900 219L852.2 274Z" fill="#429d77" stroke="#429d77"></path><path d="M813.2 134L807.4 0L764.4 53Z" fill="#009473" stroke="#009473"></path><path d="M900 219L900 217L852.2 274Z" fill="#009473" stroke="#009473"></path><path d="M44.8 409L148.8 447L151.5 386Z" fill="#7caf85" stroke="#7caf85"></path><path d="M148.8 447L98.6 518L257.6 530Z" fill="#dddfcb" stroke="#dddfcb"></path><path d="M85.8 490L98.6 518L148.8 447Z" fill="#bbcaaa" stroke="#bbcaaa"></path><path d="M880.2 0L807.4 0L813.2 134Z" fill="#cdd4ba" stroke="#cdd4ba"></path><path d="M764.4 53L807.4 0L597.5 0Z" fill="#f6f5f1" stroke="#f6f5f1"></path><path d="M597.5 0L807.4 0L281.3 -4Z" fill="#429d77" stroke="#429d77"></path><path d="M89.6 285L44.8 409L151.5 386Z" fill="#93b890" stroke="#93b890"></path><path d="M85.8 490L0 479L98.6 518Z" fill="#62a67d" stroke="#62a67d"></path><path d="M22.8 321L44.8 409L89.6 285Z" fill="#62a67d" stroke="#62a67d"></path><path d="M900 600L900 514L777.2 559Z" fill="#bbcaaa" stroke="#bbcaaa"></path><path d="M894.2 413L900 514L900 372Z" fill="#7caf85" stroke="#7caf85"></path><path d="M900 217L900 119L813.2 134Z" fill="#a8c19c" stroke="#a8c19c"></path><path d="M281.3 -4L155.5 0L239.5 17Z" fill="#dddfcb" stroke="#dddfcb"></path><path d="M239.5 17L155.5 0L208.6 102Z" fill="#dddfcb" stroke="#dddfcb"></path><path d="M0 261L22.8 321L89.6 285Z" fill="#dddfcb" stroke="#dddfcb"></path><path d="M22.8 198L126.6 242L112.8 159Z" fill="#009473" stroke="#009473"></path><path d="M281.3 -4L142.8 -3L155.5 0Z" fill="#bbcaaa" stroke="#bbcaaa"></path><path d="M155.5 0L142.8 -3L180.6 116Z" fill="#eae9de" stroke="#eae9de"></path><path d="M0 161L22.8 198L112.8 159Z" fill="#62a67d" stroke="#62a67d"></path><path d="M0 261L0 324L22.8 321Z" fill="#62a67d" stroke="#62a67d"></path><path d="M22.8 321L0 402L44.8 409Z" fill="#429d77" stroke="#429d77"></path><path d="M44.8 409L0 479L85.8 490Z" fill="#bbcaaa" stroke="#bbcaaa"></path><path d="M22.8 198L0 261L89.6 285Z" fill="#f6f5f1" stroke="#f6f5f1"></path><path d="M0 324L0 402L22.8 321Z" fill="#009473" stroke="#009473"></path><path d="M900 606L900 600L775.2 600Z" fill="#7caf85" stroke="#7caf85"></path><path d="M775.2 600L900 600L777.2 559Z" fill="#a8c19c" stroke="#a8c19c"></path><path d="M142.8 -3L104.8 0L180.6 116Z" fill="#62a67d" stroke="#62a67d"></path><path d="M342.5 620L900 606L694.5 600Z" fill="#cdd4ba" stroke="#cdd4ba"></path><path d="M0 402L0 431L44.8 409Z" fill="#f6f5f1" stroke="#f6f5f1"></path><path d="M0 161L0 205L22.8 198Z" fill="#62a67d" stroke="#62a67d"></path><path d="M22.8 198L0 205L0 261Z" fill="#eae9de" stroke="#eae9de"></path><path d="M900 119L880.2 0L813.2 134Z" fill="#cdd4ba" stroke="#cdd4ba"></path><path d="M807.4 0L880.2 0L281.3 -4Z" fill="#f6f5f1" stroke="#f6f5f1"></path><path d="M142.8 -3L97.6 0L104.8 0Z" fill="#009473" stroke="#009473"></path><path d="M104.8 0L97.6 0L112.8 159Z" fill="#eae9de" stroke="#eae9de"></path><path d="M97.6 0L0 161L112.8 159Z" fill="#93b890" stroke="#93b890"></path><path d="M0 431L0 479L44.8 409Z" fill="#a8c19c" stroke="#a8c19c"></path><path d="M98.6 518L11.8 600L212.6 600Z" fill="#a8c19c" stroke="#a8c19c"></path><path d="M900 119L900 0L880.2 0Z" fill="#dddfcb" stroke="#dddfcb"></path><path d="M880.2 0L900 0L281.3 -4Z" fill="#dddfcb" stroke="#dddfcb"></path><path d="M212.6 600L11.8 600L342.5 620Z" fill="#eae9de" stroke="#eae9de"></path><path d="M0 479L11.8 600L98.6 518Z" fill="#a8c19c" stroke="#a8c19c"></path><path d="M0 479L0 600L11.8 600Z" fill="#a8c19c" stroke="#a8c19c"></path><path d="M11.8 600L0 600L342.5 620Z" fill="#7caf85" stroke="#7caf85"></path><path d="M142.8 -3L0 0L97.6 0Z" fill="#a8c19c" stroke="#a8c19c"></path><path d="M97.6 0L0 0L0 161Z" fill="#93b890" stroke="#93b890"></path></g></svg>